<?xml version="1.0" standalone="no"?>
<!DOCTYPE svg PUBLIC "-//W3C//DTD SVG 20010904//EN"
 "http://www.w3.org/TR/2001/REC-SVG-20010904/DTD/svg10.dtd">
<svg version="1.0" xmlns="http://www.w3.org/2000/svg"
 width="1024.000000pt" height="1024.000000pt" viewBox="0 0 1024.000000 1024.000000"
 preserveAspectRatio="xMidYMid meet">

<g transform="translate(0.000000,1024.000000) scale(0.100000,-0.100000)"
fill="#000000" stroke="none">
<path d="M0 5120 l0 -5120 5120 0 5120 0 0 5120 0 5120 -5120 0 -5120 0 0
-5120z m5316 3259 c740 -72 1442 -500 1869 -1139 80 -120 195 -338 246 -465
41 -103 26 -172 -45 -208 -36 -19 -42 -19 -80 -6 -33 11 -45 23 -63 59 -12 25
-53 110 -91 190 -329 686 -995 1173 -1757 1285 -82 12 -182 18 -315 19 -198 0
-282 -8 -469 -46 -87 -17 -110 -19 -143 -8 -134 40 -127 209 10 254 55 18 250
52 372 65 123 12 340 13 466 0z m-1243 -230 c94 -49 111 -163 35 -236 -18 -17
-80 -59 -138 -94 -304 -182 -565 -427 -755 -709 -121 -182 -252 -485 -304
-707 -50 -215 -72 -512 -52 -713 63 -634 413 -1214 865 -1435 142 -70 241 -95
371 -97 204 -1 380 57 681 228 350 197 552 267 808 281 381 20 736 -135 1052
-458 162 -167 266 -317 354 -516 61 -138 71 -174 26 -97 -53 92 -163 193 -256
236 -176 81 -439 97 -705 43 -195 -40 -324 -86 -682 -244 -279 -123 -445 -177
-620 -201 -132 -18 -420 -8 -546 19 -355 77 -666 245 -936 506 -501 484 -762
1077 -788 1785 -33 917 451 1796 1258 2286 212 128 276 152 332 123z m317
-329 c114 -185 337 -460 484 -597 53 -50 153 -133 226 -187 17 -13 22 -21
-101 144 -95 128 -149 206 -149 214 0 12 201 6 312 -9 341 -45 630 -176 852
-386 172 -163 238 -269 292 -471 4 -13 -4 -19 -31 -24 -28 -5 -45 -18 -73 -55
-36 -49 -36 -49 -50 -27 -7 13 -11 15 -8 6 3 -9 10 -34 15 -56 6 -21 25 -58
42 -82 l31 -42 21 33 21 34 8 -44 c10 -56 47 -118 97 -164 62 -56 325 -227
455 -295 15 -7 -4 -11 -80 -17 -101 -7 -255 -28 -309 -43 -29 -8 -30 -11 -33
-68 -3 -53 1 -65 29 -108 29 -43 65 -75 125 -112 18 -11 17 -14 -16 -49 -102
-108 -288 -132 -540 -70 -137 33 -248 41 -395 26 -154 -16 -226 -31 -353 -76
-111 -39 -273 -117 -294 -142 -7 -9 20 1 59 21 213 107 484 149 713 112 47 -8
159 -31 250 -51 149 -33 176 -37 275 -33 89 3 126 10 192 33 93 33 119 28 83
-17 -58 -75 -199 -125 -320 -115 -38 3 -117 22 -177 42 -201 67 -242 76 -379
82 -166 7 -269 -7 -401 -57 -208 -78 -346 -181 -609 -456 -252 -264 -367 -337
-524 -337 -134 0 -233 67 -266 180 -33 113 -1 301 79 458 37 75 127 213 166
254 16 17 27 31 26 31 -2 0 15 21 38 48 148 168 313 279 522 350 148 50 243
66 412 66 84 1 149 4 145 8 -4 4 -54 16 -112 28 -207 43 -557 35 -707 -16
-126 -42 -301 -140 -414 -230 -283 -225 -457 -544 -459 -839 l0 -70 -42 65
c-269 421 -180 977 218 1360 44 42 92 85 108 96 l28 20 -178 1 c-99 1 -204 5
-234 10 l-55 8 70 24 c107 35 304 135 393 199 44 31 137 104 207 162 230 189
369 281 517 340 55 21 57 23 39 39 -18 15 -33 40 -128 216 -40 74 -43 78 -44
48 -1 -18 -3 -37 -4 -43 -1 -5 -3 -16 -4 -22 -2 -15 -39 51 -56 100 l-12 33
-16 -53 c-24 -74 -36 -181 -30 -264 l5 -70 -58 -38 c-66 -44 -204 -181 -204
-202 0 -8 -4 -14 -8 -14 -14 0 -33 97 -43 222 -21 259 36 540 165 813 48 101
120 225 130 225 2 0 32 -45 66 -100z m1608 -82 c48 -147 64 -240 65 -383 1
-71 -2 -147 -6 -168 -7 -33 -10 -36 -28 -27 -11 6 -17 16 -13 23 4 7 4 9 -1 5
-5 -5 -99 45 -123 67 -2 2 1 12 6 22 17 30 31 174 23 223 l-7 45 -17 -39 c-10
-22 -52 -73 -94 -114 -84 -82 -73 -80 -190 -38 -40 14 -99 31 -132 38 -34 6
-61 15 -61 18 0 13 190 162 330 259 80 55 158 113 174 130 17 17 33 31 37 31
3 0 20 -42 37 -92z m1552 -1484 c43 -26 60 -66 72 -166 20 -178 -6 -711 -33
-684 -3 3 -6 -14 -6 -38 0 -48 -15 -76 -42 -76 -14 0 -14 -2 -1 -10 12 -8 9
-10 -13 -10 -20 0 -26 4 -20 13 4 6 8 26 9 42 1 17 -1 24 -3 18 -3 -7 -9 -13
-15 -13 -6 0 -7 8 -3 18 5 13 4 14 -6 5 -10 -10 -10 -15 0 -27 17 -21 -3 -56
-32 -56 -18 0 -19 -2 -7 -10 12 -7 10 -9 -7 -7 -15 1 -19 5 -13 13 6 6 8 13 5
16 -3 2 5 4 17 4 11 -1 22 4 24 9 5 15 -14 41 -23 32 -4 -5 -1 -12 7 -17 8 -5
11 -12 8 -16 -4 -3 -14 1 -23 10 -9 9 -24 17 -33 17 -9 1 -27 3 -40 4 -22 2
-22 2 -5 -18 17 -20 17 -20 0 -14 -15 6 -17 3 -12 -16 4 -15 3 -18 -3 -8 -14
19 -24 -2 -17 -36 3 -15 2 -22 -1 -14 -5 11 -8 11 -16 0 -9 -15 0 38 11 56 3
6 6 15 6 20 5 53 19 115 27 115 5 0 7 4 4 9 -3 5 1 53 8 107 24 167 28 293 16
472 -14 193 -10 220 44 253 38 23 79 24 116 3z m-809 -802 c-12 -22 -81 -85
-87 -79 -13 12 21 66 54 85 41 23 48 22 33 -6z m669 -161 c0 -6 -4 -12 -8 -15
-5 -3 -9 1 -9 9 0 8 4 15 9 15 4 0 8 -4 8 -9z m97 -37 c-3 -3 -12 -4 -19 -1
-8 3 -5 6 6 6 11 1 17 -2 13 -5z m-30 -30 c-3 -3 -12 -4 -19 -1 -8 3 -5 6 6 6
11 1 17 -2 13 -5z m48 -4 c3 -6 -1 -7 -9 -4 -18 7 -21 14 -7 14 6 0 13 -4 16
-10z m-212 -50 c-3 -12 -8 -19 -11 -16 -5 6 5 36 12 36 2 0 2 -9 -1 -20z
m-498 -2191 c84 -31 183 -130 214 -214 59 -156 47 -294 -34 -430 l-36 -59 48
-42 c54 -47 54 -52 -11 -129 l-34 -40 -66 63 c-63 59 -68 61 -89 48 -41 -27
-145 -37 -218 -21 -130 27 -218 94 -274 209 -91 182 -63 386 70 525 109 115
273 149 430 90z m748 -21 c8 -24 76 -210 151 -415 75 -204 136 -377 136 -383
0 -7 -27 -10 -82 -8 l-83 3 -30 83 -29 83 -156 -5 -155 -6 -23 -57 c-45 -114
-32 -103 -122 -103 -44 0 -80 4 -80 8 0 12 247 701 290 809 8 19 18 23 77 26
37 2 73 4 80 5 6 1 18 -17 26 -40z m-4533 -44 l0 -75 -125 3 -125 3 -2 -345
-3 -345 -75 0 -75 0 -3 349 -2 349 -108 -7 c-59 -4 -120 -4 -135 -1 -26 7 -27
10 -27 76 l0 69 340 0 340 0 0 -76z m425 -178 c92 -54 139 -138 152 -268 l6
-68 -222 0 c-170 0 -221 -3 -221 -12 0 -31 43 -80 87 -100 56 -25 105 -19 176
20 l49 26 39 -44 c21 -25 39 -48 39 -51 0 -3 -19 -19 -43 -36 -125 -90 -307
-81 -409 21 -55 55 -81 117 -86 207 -9 161 65 280 203 326 63 20 176 10 230
-21z m663 -1 c38 -21 61 -42 80 -74 27 -46 27 -47 30 -278 l4 -233 -61 0 c-34
0 -61 3 -61 8 0 4 -4 13 -9 20 -6 11 -17 9 -52 -10 -68 -35 -181 -38 -252 -5
-131 60 -143 230 -20 307 60 38 161 56 232 41 71 -15 71 -15 71 19 0 41 -18
76 -47 89 -41 19 -127 13 -200 -14 -37 -13 -67 -23 -68 -22 0 1 -8 26 -19 56
-19 59 -21 56 39 88 55 30 119 42 200 40 66 -3 89 -8 133 -32z m642 25 c20 -5
52 -25 72 -43 l36 -33 33 29 c98 81 274 70 336 -23 37 -54 43 -95 43 -322 l0
-218 -75 0 -75 0 0 205 0 205 -28 31 c-22 25 -37 32 -69 33 -22 0 -52 -5 -65
-12 -49 -26 -53 -44 -58 -257 l-5 -200 -72 -3 -72 -3 -3 209 c-3 229 -4 233
-66 259 -40 17 -99 4 -128 -28 -17 -19 -20 -43 -24 -228 l-5 -206 -72 -3 -73
-3 0 306 0 305 70 0 c70 0 77 -4 71 -42 -2 -12 7 -10 34 8 61 40 131 52 195
34z m1001 -5 c31 -7 73 -24 93 -36 35 -20 36 -22 21 -43 -9 -11 -23 -33 -33
-48 -20 -33 -23 -33 -90 -8 -93 36 -192 20 -192 -30 0 -25 34 -42 135 -69 100
-27 153 -56 183 -101 20 -30 23 -44 20 -97 -7 -112 -81 -173 -217 -181 -63 -4
-89 0 -148 21 -66 22 -131 62 -132 79 -1 9 59 98 65 98 3 0 32 -14 65 -31 108
-54 219 -49 219 10 0 34 -32 53 -130 76 -87 21 -136 43 -168 77 -43 46 -49
123 -17 188 46 90 188 132 326 95z m-1280 -1013 c56 -119 79 -172 79 -182 0
-21 -41 -9 -52 15 -10 23 -17 25 -74 25 -59 0 -64 -2 -70 -24 -6 -24 -42 -42
-55 -28 -6 6 88 219 114 260 13 19 24 7 58 -66z m1757 -54 c34 -72 59 -135 56
-140 -12 -19 -42 -6 -54 22 -12 28 -15 30 -71 30 -50 0 -60 -3 -70 -22 -19
-37 -45 -49 -55 -25 -6 16 111 267 124 267 5 0 37 -59 70 -132z m-3369 105
c20 -16 20 -20 8 -38 -15 -19 -15 -19 -50 0 -30 16 -38 17 -51 6 -25 -21 -19
-31 32 -53 66 -29 82 -45 82 -85 0 -63 -58 -94 -136 -73 -53 15 -61 25 -39 50
15 16 19 17 46 3 37 -18 79 -10 79 16 0 12 -13 22 -41 31 -87 29 -112 78 -68
134 17 22 28 26 69 26 31 0 55 -6 69 -17z m338 -26 c28 -32 33 -44 33 -88 0
-67 -33 -114 -91 -129 -97 -26 -176 41 -166 143 4 43 10 56 42 85 35 32 41 34
93 30 48 -4 60 -10 89 -41z m323 18 c0 -24 -2 -25 -65 -25 l-65 0 0 -36 c0
-35 1 -35 38 -34 64 3 72 1 72 -20 0 -18 -7 -20 -54 -20 l-55 0 -3 -52 c-3
-45 -6 -52 -25 -53 -23 -2 -23 0 -23 132 l0 133 90 0 c89 0 90 0 90 -25z m288
-2 c-3 -26 -6 -28 -40 -25 l-38 3 0 -109 0 -109 -25 0 -25 0 0 108 0 109 -40
0 c-36 0 -40 3 -40 25 l0 25 106 0 105 0 -3 -27z m136 -15 c9 -24 22 -61 29
-83 l14 -40 27 83 c24 71 31 83 48 80 15 -2 28 -23 51 -82 34 -87 30 -89 62
26 14 51 19 57 41 56 13 -1 24 -5 24 -8 -2 -22 -70 -244 -78 -252 -19 -19 -40
0 -57 54 -10 29 -24 66 -33 82 l-14 30 -23 -72 c-33 -104 -31 -101 -54 -95
-17 4 -28 29 -56 117 -40 130 -42 146 -16 146 14 0 24 -13 35 -42z m850 32
c27 -10 56 -56 56 -89 0 -11 -12 -33 -26 -51 l-26 -31 25 -38 c25 -38 25 -39
6 -44 -21 -6 -38 8 -72 57 -10 14 -27 26 -37 26 -17 0 -20 -7 -20 -40 0 -36
-2 -40 -25 -40 l-25 0 0 130 0 130 59 0 c33 0 71 -4 85 -10z m346 -15 c0 -24
-2 -25 -64 -25 -70 0 -78 -5 -69 -38 5 -19 12 -22 54 -22 45 0 49 -2 49 -24 0
-23 -4 -25 -52 -28 -46 -3 -53 -6 -56 -25 -3 -21 1 -22 65 -25 61 -3 68 -5 71
-25 3 -21 -1 -22 -87 -25 -107 -4 -101 -13 -101 150 l0 112 95 0 c95 0 95 0
95 -25z m421 2 c43 -29 59 -60 59 -118 0 -33 -7 -57 -26 -85 -25 -36 -25 -39
-8 -51 10 -7 21 -13 26 -13 16 0 7 -29 -14 -44 -15 -11 -26 -12 -39 -6 -10 6
-27 10 -38 10 -28 0 -55 29 -41 45 8 9 -1 16 -36 30 -56 21 -84 62 -84 123 0
110 111 170 201 109z m209 -69 c0 -71 3 -81 25 -104 19 -19 31 -23 48 -18 43
13 47 23 47 120 0 94 0 94 25 94 l25 0 0 -103 c0 -102 0 -104 -31 -133 -25
-24 -39 -29 -79 -29 -41 0 -55 5 -77 28 -26 26 -28 33 -31 131 l-4 104 26 -5
c25 -5 26 -7 26 -85z m662 5 c0 -49 1 -96 0 -105 -2 -16 7 -18 63 -18 62 0 65
-1 65 -24 0 -24 -3 -25 -86 -28 -47 -2 -88 -1 -90 1 -2 2 -4 62 -4 133 l0 128
25 0 c25 0 25 -1 27 -87z m268 -43 l0 -130 -25 0 -25 0 0 130 0 130 25 0 25 0
0 -130z m298 103 c-3 -26 -6 -28 -40 -25 l-38 4 0 -111 0 -111 -25 0 -25 0 0
110 0 110 -40 0 c-36 0 -40 3 -40 25 l0 25 106 0 105 0 -3 -27z m164 -24 l31
-51 18 23 c10 13 24 36 30 52 9 20 18 27 40 27 16 0 29 -2 29 -5 0 -3 -20 -41
-45 -85 -35 -62 -45 -89 -45 -125 0 -41 -2 -45 -25 -45 -23 0 -25 4 -25 47 0
36 -9 62 -45 124 -25 43 -45 81 -45 84 0 3 11 5 25 5 20 0 32 -12 57 -51z"/>
<path d="M5270 6504 c-125 -20 -270 -50 -270 -56 0 -4 26 -15 58 -23 192 -54
186 -51 220 -104 16 -27 49 -62 73 -78 39 -25 53 -28 158 -33 120 -6 132 -9
210 -63 l44 -30 -7 29 c-4 16 -26 67 -48 114 -53 109 -128 187 -211 219 -56
21 -174 34 -227 25z"/>
<path d="M4538 6053 c6 -2 18 -2 25 0 6 3 1 5 -13 5 -14 0 -19 -2 -12 -5z"/>
<path d="M7460 5360 c-9 -6 -10 -10 -3 -10 6 0 15 5 18 10 8 12 4 12 -15 0z"/>
<path d="M7555 5359 c-4 -6 -5 -12 -2 -15 2 -3 7 2 10 11 7 17 1 20 -8 4z"/>
<path d="M7415 5349 c-10 -15 3 -25 16 -12 7 7 7 13 1 17 -6 3 -14 1 -17 -5z"/>
<path d="M7532 5330 c0 -14 2 -19 5 -12 2 6 2 18 0 25 -3 6 -5 1 -5 -13z"/>
<path d="M6586 2844 c-62 -22 -102 -59 -132 -121 -24 -49 -28 -69 -28 -142 0
-130 45 -215 138 -263 42 -22 156 -37 156 -21 0 5 -16 25 -35 43 -20 19 -44
49 -55 67 l-18 31 54 28 54 27 55 -52 c30 -29 60 -49 65 -46 18 11 50 82 61
135 8 39 8 68 -1 117 -31 160 -172 249 -314 197z"/>
<path d="M7413 2611 l-51 -150 105 -3 105 -3 -5 31 c-3 17 -24 79 -46 139 -23
60 -41 115 -41 122 0 40 -21 -3 -67 -136z"/>
<path d="M3225 2608 c-20 -19 -38 -47 -41 -65 l-6 -33 136 0 c149 0 151 1 121
60 -25 49 -61 70 -121 70 -47 0 -59 -4 -89 -32z"/>
<path d="M3905 2395 c-22 -8 -41 -15 -42 -15 -1 0 -7 -9 -13 -21 -16 -28 3
-73 36 -88 35 -16 100 -14 139 5 52 24 72 102 30 118 -39 14 -113 15 -150 1z"/>
<path d="M4420 1694 c-15 -39 -13 -44 20 -44 35 0 35 1 15 40 -19 37 -23 37
-35 4z"/>
<path d="M6151 1688 c-6 -17 -11 -33 -11 -34 0 -2 13 -4 29 -4 29 0 30 1 19
30 -14 42 -24 45 -37 8z"/>
<path d="M3055 1735 c-51 -50 -17 -135 54 -135 49 0 81 32 81 82 0 70 -86 103
-135 53z"/>
<path d="M4717 1753 c-4 -3 -7 -21 -7 -40 0 -32 2 -33 38 -33 57 0 79 31 46
64 -15 16 -65 22 -77 9z"/>
<path d="M5445 1735 c-16 -15 -25 -36 -25 -55 0 -19 9 -40 25 -55 27 -28 45
-31 63 -13 10 10 15 10 23 -2 8 -13 12 -11 29 9 35 41 25 103 -21 126 -40 21
-66 19 -94 -10z"/>
</g>
</svg>
